<?xml version="1.0" encoding="us-ascii" standalone="no"?><svg xmlns="http://www.w3.org/2000/svg" xmlns:xlink="http://www.w3.org/1999/xlink" contentStyleType="text/css" height="1216px" preserveAspectRatio="none" style="width:1135px;height:1216px;background:#FEFEFE;" version="1.1" viewBox="0 0 1135 1216" width="1135px" zoomAndPan="magnify"><defs/><g><rect fill="#FEFEFE" height="1216" style="stroke:none;stroke-width:1.0;" width="1135" x="0" y="0"/><text fill="#000000" font-family="sans-serif" font-size="14" font-weight="bold" lengthAdjust="spacing" textLength="276" x="425.5" y="27.9951">VIEW LAYER - Playlist UI Operations</text><rect fill="#FFFFFF" height="216.9297" style="stroke:#181818;stroke-width:1.0;" width="10" x="296" y="192.8594"/><rect fill="#FFFFFF" height="300" style="stroke:#181818;stroke-width:1.0;" width="10" x="296" y="482.0547"/><rect fill="#FFFFFF" height="279" style="stroke:#181818;stroke-width:1.0;" width="10" x="296" y="846.3203"/><rect fill="#FFFFFF" height="87.3984" style="stroke:#181818;stroke-width:1.0;" width="10" x="623" y="293.2578"/><rect fill="#FFFFFF" height="87.3984" style="stroke:#181818;stroke-width:1.0;" width="10" x="623" y="606.5859"/><rect fill="#FFFFFF" height="29.1328" style="stroke:#181818;stroke-width:1.0;" width="10" x="623" y="875.4531"/><rect fill="#FFFFFF" height="29.1328" style="stroke:#181818;stroke-width:1.0;" width="10" x="837" y="322.3906"/><rect fill="#FFFFFF" height="29.1328" style="stroke:#181818;stroke-width:1.0;" width="10" x="837" y="635.7188"/><rect fill="#FFFFFF" height="79.3984" style="stroke:#181818;stroke-width:1.0;" width="10" x="947" y="957.8516"/><rect fill="none" height="206.7344" style="stroke:#000000;stroke-width:1.5;" width="888" x="10" y="568.3203"/><rect fill="none" height="198.7344" style="stroke:#000000;stroke-width:1.5;" width="1108" x="10" y="919.5859"/><line style="stroke:#181818;stroke-width:0.5;stroke-dasharray:5.0,5.0;" x1="39" x2="39" y1="118.5938" y2="1135.3203"/><line style="stroke:#181818;stroke-width:0.5;stroke-dasharray:5.0,5.0;" x1="110" x2="110" y1="118.5938" y2="1135.3203"/><line style="stroke:#181818;stroke-width:0.5;stroke-dasharray:5.0,5.0;" x1="301" x2="301" y1="118.5938" y2="1135.3203"/><line style="stroke:#181818;stroke-width:0.5;stroke-dasharray:5.0,5.0;" x1="628" x2="628" y1="118.5938" y2="1135.3203"/><line style="stroke:#181818;stroke-width:0.5;stroke-dasharray:5.0,5.0;" x1="842" x2="842" y1="118.5938" y2="1135.3203"/><line style="stroke:#181818;stroke-width:0.5;stroke-dasharray:5.0,5.0;" x1="952" x2="952" y1="118.5938" y2="1135.3203"/><text fill="#000000" font-family="sans-serif" font-size="14" lengthAdjust="spacing" textLength="32" x="20" y="115.292">User</text><ellipse cx="39" cy="50.7969" fill="#E2E2F0" rx="8" ry="8" style="stroke:#181818;stroke-width:0.5;"/><path d="M39,58.7969 L39,85.7969 M26,66.7969 L52,66.7969 M39,85.7969 L26,100.7969 M39,85.7969 L52,100.7969 " fill="none" style="stroke:#181818;stroke-width:0.5;"/><text fill="#000000" font-family="sans-serif" font-size="14" lengthAdjust="spacing" textLength="32" x="20" y="1147.3154">User</text><ellipse cx="39" cy="1159.1172" fill="#E2E2F0" rx="8" ry="8" style="stroke:#181818;stroke-width:0.5;"/><path d="M39,1167.1172 L39,1194.1172 M26,1175.1172 L52,1175.1172 M39,1194.1172 L26,1209.1172 M39,1194.1172 L52,1209.1172 " fill="none" style="stroke:#181818;stroke-width:0.5;"/><rect fill="#90EE90" height="30.2969" rx="2.5" ry="2.5" style="stroke:#181818;stroke-width:0.5;" width="85" x="68" y="87.2969"/><text fill="#000000" font-family="sans-serif" font-size="14" lengthAdjust="spacing" textLength="71" x="75" y="107.292">ImGuiView</text><rect fill="#90EE90" height="30.2969" rx="2.5" ry="2.5" style="stroke:#181818;stroke-width:0.5;" width="85" x="68" y="1134.3203"/><text fill="#000000" font-family="sans-serif" font-size="14" lengthAdjust="spacing" textLength="71" x="75" y="1154.3154">ImGuiView</text><rect fill="#90EE90" height="30.2969" rx="2.5" ry="2.5" style="stroke:#181818;stroke-width:0.5;" width="102" x="250" y="87.2969"/><text fill="#000000" font-family="sans-serif" font-size="14" lengthAdjust="spacing" textLength="88" x="257" y="107.292">MainContent</text><rect fill="#90EE90" height="30.2969" rx="2.5" ry="2.5" style="stroke:#181818;stroke-width:0.5;" width="102" x="250" y="1134.3203"/><text fill="#000000" font-family="sans-serif" font-size="14" lengthAdjust="spacing" textLength="88" x="257" y="1154.3154">MainContent</text><rect fill="#90EE90" height="46.5938" rx="2.5" ry="2.5" style="stroke:#181818;stroke-width:0.5;" width="120" x="568" y="71"/><text fill="#000000" font-family="sans-serif" font-size="14" lengthAdjust="spacing" textLength="106" x="575" y="90.9951">PlaylistManager</text><text fill="#000000" font-family="sans-serif" font-size="14" lengthAdjust="spacing" textLength="42" x="607" y="107.292">(View)</text><rect fill="#90EE90" height="46.5938" rx="2.5" ry="2.5" style="stroke:#181818;stroke-width:0.5;" width="120" x="568" y="1134.3203"/><text fill="#000000" font-family="sans-serif" font-size="14" lengthAdjust="spacing" textLength="106" x="575" y="1154.3154">PlaylistManager</text><text fill="#000000" font-family="sans-serif" font-size="14" lengthAdjust="spacing" textLength="42" x="607" y="1170.6123">(View)</text><rect fill="#90EE90" height="30.2969" rx="2.5" ry="2.5" style="stroke:#181818;stroke-width:0.5;" width="92" x="796" y="87.2969"/><text fill="#000000" font-family="sans-serif" font-size="14" lengthAdjust="spacing" textLength="78" x="803" y="107.292">PlaylistData</text><rect fill="#90EE90" height="30.2969" rx="2.5" ry="2.5" style="stroke:#181818;stroke-width:0.5;" width="92" x="796" y="1134.3203"/><text fill="#000000" font-family="sans-serif" font-size="14" lengthAdjust="spacing" textLength="78" x="803" y="1154.3154">PlaylistData</text><rect fill="#E2E2F0" height="30.2969" rx="2.5" ry="2.5" style="stroke:#181818;stroke-width:0.5;" width="108" x="898" y="87.2969"/><text fill="#000000" font-family="sans-serif" font-size="14" lengthAdjust="spacing" textLength="94" x="905" y="107.292">AppController</text><rect fill="#E2E2F0" height="30.2969" rx="2.5" ry="2.5" style="stroke:#181818;stroke-width:0.5;" width="108" x="898" y="1134.3203"/><text fill="#000000" font-family="sans-serif" font-size="14" lengthAdjust="spacing" textLength="94" x="905" y="1154.3154">AppController</text><rect fill="#FFFFFF" height="216.9297" style="stroke:#181818;stroke-width:1.0;" width="10" x="296" y="192.8594"/><rect fill="#FFFFFF" height="300" style="stroke:#181818;stroke-width:1.0;" width="10" x="296" y="482.0547"/><rect fill="#FFFFFF" height="279" style="stroke:#181818;stroke-width:1.0;" width="10" x="296" y="846.3203"/><rect fill="#FFFFFF" height="87.3984" style="stroke:#181818;stroke-width:1.0;" width="10" x="623" y="293.2578"/><rect fill="#FFFFFF" height="87.3984" style="stroke:#181818;stroke-width:1.0;" width="10" x="623" y="606.5859"/><rect fill="#FFFFFF" height="29.1328" style="stroke:#181818;stroke-width:1.0;" width="10" x="623" y="875.4531"/><rect fill="#FFFFFF" height="29.1328" style="stroke:#181818;stroke-width:1.0;" width="10" x="837" y="322.3906"/><rect fill="#FFFFFF" height="29.1328" style="stroke:#181818;stroke-width:1.0;" width="10" x="837" y="635.7188"/><rect fill="#FFFFFF" height="79.3984" style="stroke:#181818;stroke-width:1.0;" width="10" x="947" y="957.8516"/><rect fill="#EEEEEE" height="3" style="stroke:#EEEEEE;stroke-width:1.0;" width="1128" x="0" y="149.1602"/><line style="stroke:#000000;stroke-width:1.0;" x1="0" x2="1128" y1="149.1602" y2="149.1602"/><line style="stroke:#000000;stroke-width:1.0;" x1="0" x2="1128" y1="152.1602" y2="152.1602"/><rect fill="#EEEEEE" height="23.1328" style="stroke:#000000;stroke-width:2.0;" width="182" x="473" y="138.5938"/><text fill="#000000" font-family="sans-serif" font-size="13" font-weight="bold" lengthAdjust="spacing" textLength="163" x="479" y="154.6606">1. Create New Playlist</text><polygon fill="#181818" points="284,188.8594,294,192.8594,284,196.8594,288,192.8594" style="stroke:#181818;stroke-width:1.0;"/><line style="stroke:#181818;stroke-width:1.0;" x1="39" x2="290" y1="192.8594" y2="192.8594"/><text fill="#000000" font-family="sans-serif" font-size="13" lengthAdjust="spacing" textLength="140" x="97.5" y="187.7935">1. clickCreatePlaylist()</text><line style="stroke:#181818;stroke-width:1.0;" x1="306" x2="348" y1="221.9922" y2="221.9922"/><line style="stroke:#181818;stroke-width:1.0;" x1="348" x2="348" y1="221.9922" y2="234.9922"/><line style="stroke:#181818;stroke-width:1.0;" x1="307" x2="348" y1="234.9922" y2="234.9922"/><polygon fill="#181818" points="317,230.9922,307,234.9922,317,238.9922,313,234.9922" style="stroke:#181818;stroke-width:1.0;"/><text fill="#000000" font-family="sans-serif" font-size="13" lengthAdjust="spacing" textLength="185" x="313" y="216.9263">1.1. showDialog(name, desc)</text><polygon fill="#181818" points="284,260.125,294,264.125,284,268.125,288,264.125" style="stroke:#181818;stroke-width:1.0;"/><line style="stroke:#181818;stroke-width:1.0;" x1="39" x2="290" y1="264.125" y2="264.125"/><text fill="#000000" font-family="sans-serif" font-size="13" lengthAdjust="spacing" textLength="233" x="51" y="259.0591">1.2. inputData(name, desc, colorIdx)</text><polygon fill="#181818" points="611,289.2578,621,293.2578,611,297.2578,615,293.2578" style="stroke:#181818;stroke-width:1.0;"/><line style="stroke:#181818;stroke-width:1.0;" x1="306" x2="617" y1="293.2578" y2="293.2578"/><text fill="#000000" font-family="sans-serif" font-size="13" lengthAdjust="spacing" textLength="267" x="331" y="288.1919">1.2.1. createPlaylist(name, desc, colorIdx)</text><polygon fill="#181818" points="825,318.3906,835,322.3906,825,326.3906,829,322.3906" style="stroke:#181818;stroke-width:1.0;"/><line style="stroke:#181818;stroke-width:1.0;" x1="633" x2="831" y1="322.3906" y2="322.3906"/><text fill="#000000" font-family="sans-serif" font-size="13" lengthAdjust="spacing" textLength="161" x="654.5" y="317.3247">1.2.1.1. addPlaylistData()</text><polygon fill="#181818" points="644,347.5234,634,351.5234,644,355.5234,640,351.5234" style="stroke:#181818;stroke-width:1.0;"/><line style="stroke:#181818;stroke-width:1.0;stroke-dasharray:2.0,2.0;" x1="638" x2="841" y1="351.5234" y2="351.5234"/><text fill="#000000" font-family="sans-serif" font-size="13" lengthAdjust="spacing" textLength="91" x="692" y="346.4575">1.2.1.2. return</text><polygon fill="#181818" points="317,376.6563,307,380.6563,317,384.6563,313,380.6563" style="stroke:#181818;stroke-width:1.0;"/><line style="stroke:#181818;stroke-width:1.0;stroke-dasharray:2.0,2.0;" x1="311" x2="627" y1="380.6563" y2="380.6563"/><text fill="#000000" font-family="sans-serif" font-size="13" lengthAdjust="spacing" textLength="79" x="427.5" y="375.5903">1.2.2. return</text><polygon fill="#181818" points="50,405.7891,40,409.7891,50,413.7891,46,409.7891" style="stroke:#181818;stroke-width:1.0;"/><line style="stroke:#181818;stroke-width:1.0;stroke-dasharray:2.0,2.0;" x1="44" x2="300" y1="409.7891" y2="409.7891"/><text fill="#000000" font-family="sans-serif" font-size="13" lengthAdjust="spacing" textLength="141" x="99.5" y="404.7231">1.3. showNewPlaylist()</text><rect fill="#EEEEEE" height="3" style="stroke:#EEEEEE;stroke-width:1.0;" width="1128" x="0" y="438.3555"/><line style="stroke:#000000;stroke-width:1.0;" x1="0" x2="1128" y1="438.3555" y2="438.3555"/><line style="stroke:#000000;stroke-width:1.0;" x1="0" x2="1128" y1="441.3555" y2="441.3555"/><rect fill="#EEEEEE" height="23.1328" style="stroke:#000000;stroke-width:2.0;" width="191" x="468.5" y="427.7891"/><text fill="#000000" font-family="sans-serif" font-size="13" font-weight="bold" lengthAdjust="spacing" textLength="172" x="474.5" y="443.856">2. Add Track to Playlist</text><polygon fill="#181818" points="284,478.0547,294,482.0547,284,486.0547,288,482.0547" style="stroke:#181818;stroke-width:1.0;"/><line style="stroke:#181818;stroke-width:1.0;" x1="39" x2="290" y1="482.0547" y2="482.0547"/><text fill="#000000" font-family="sans-serif" font-size="13" lengthAdjust="spacing" textLength="171" x="82" y="476.9888">2. clickAddButton(trackIdx)</text><line style="stroke:#181818;stroke-width:1.0;" x1="306" x2="348" y1="511.1875" y2="511.1875"/><line style="stroke:#181818;stroke-width:1.0;" x1="348" x2="348" y1="511.1875" y2="524.1875"/><line style="stroke:#181818;stroke-width:1.0;" x1="307" x2="348" y1="524.1875" y2="524.1875"/><polygon fill="#181818" points="317,520.1875,307,524.1875,317,528.1875,313,524.1875" style="stroke:#181818;stroke-width:1.0;"/><text fill="#000000" font-family="sans-serif" font-size="13" lengthAdjust="spacing" textLength="149" x="313" y="506.1216">2.1. showPlaylistMenu()</text><polygon fill="#181818" points="284,549.3203,294,553.3203,284,557.3203,288,553.3203" style="stroke:#181818;stroke-width:1.0;"/><line style="stroke:#181818;stroke-width:1.0;" x1="39" x2="290" y1="553.3203" y2="553.3203"/><text fill="#000000" font-family="sans-serif" font-size="13" lengthAdjust="spacing" textLength="182" x="76.5" y="548.2544">2.2. selectPlaylist(playlistIdx)</text><path d="M10,568.3203 L74,568.3203 L74,575.4531 L64,585.4531 L10,585.4531 L10,568.3203 " fill="#EEEEEE" style="stroke:#000000;stroke-width:1.5;"/><rect fill="none" height="206.7344" style="stroke:#000000;stroke-width:1.5;" width="888" x="10" y="568.3203"/><text fill="#000000" font-family="sans-serif" font-size="13" font-weight="bold" lengthAdjust="spacing" textLength="19" x="25" y="581.3872">alt</text><text fill="#000000" font-family="sans-serif" font-size="11" font-weight="bold" lengthAdjust="spacing" textLength="111" x="89" y="580.5308">[playlistIdx valid]</text><polygon fill="#181818" points="611,602.5859,621,606.5859,611,610.5859,615,606.5859" style="stroke:#181818;stroke-width:1.0;"/><line style="stroke:#181818;stroke-width:1.0;" x1="306" x2="617" y1="606.5859" y2="606.5859"/><text fill="#000000" font-family="sans-serif" font-size="13" lengthAdjust="spacing" textLength="298" x="315.5" y="601.52">2.2.1. addTrackToPlaylist(playlistIdx, trackPath)</text><polygon fill="#181818" points="825,631.7188,835,635.7188,825,639.7188,829,635.7188" style="stroke:#181818;stroke-width:1.0;"/><line style="stroke:#181818;stroke-width:1.0;" x1="633" x2="831" y1="635.7188" y2="635.7188"/><text fill="#000000" font-family="sans-serif" font-size="13" lengthAdjust="spacing" textLength="185" x="642.5" y="630.6528">2.2.1.1. pushTrackPath(path)</text><polygon fill="#181818" points="644,660.8516,634,664.8516,644,668.8516,640,664.8516" style="stroke:#181818;stroke-width:1.0;"/><line style="stroke:#181818;stroke-width:1.0;stroke-dasharray:2.0,2.0;" x1="638" x2="841" y1="664.8516" y2="664.8516"/><text fill="#000000" font-family="sans-serif" font-size="13" lengthAdjust="spacing" textLength="91" x="692" y="659.7856">2.2.1.2. return</text><polygon fill="#181818" points="317,689.9844,307,693.9844,317,697.9844,313,693.9844" style="stroke:#181818;stroke-width:1.0;"/><line style="stroke:#181818;stroke-width:1.0;stroke-dasharray:2.0,2.0;" x1="311" x2="627" y1="693.9844" y2="693.9844"/><text fill="#000000" font-family="sans-serif" font-size="13" lengthAdjust="spacing" textLength="134" x="400" y="688.9185">2.2.2. return success</text><polygon fill="#181818" points="50,719.1172,40,723.1172,50,727.1172,46,723.1172" style="stroke:#181818;stroke-width:1.0;"/><line style="stroke:#181818;stroke-width:1.0;stroke-dasharray:2.0,2.0;" x1="44" x2="295" y1="723.1172" y2="723.1172"/><text fill="#000000" font-family="sans-serif" font-size="13" lengthAdjust="spacing" textLength="152" x="91.5" y="718.0513">2.3. showConfirmation()</text><line style="stroke:#000000;stroke-width:1.0;stroke-dasharray:2.0,2.0;" x1="10" x2="898" y1="732.1172" y2="732.1172"/><text fill="#000000" font-family="sans-serif" font-size="11" font-weight="bold" lengthAdjust="spacing" textLength="123" x="15" y="742.3276">[playlistIdx invalid]</text><polygon fill="#181818" points="50,763.0547,40,767.0547,50,771.0547,46,767.0547" style="stroke:#181818;stroke-width:1.0;"/><line style="stroke:#181818;stroke-width:1.0;stroke-dasharray:2.0,2.0;" x1="44" x2="295" y1="767.0547" y2="767.0547"/><text fill="#000000" font-family="sans-serif" font-size="13" lengthAdjust="spacing" textLength="101" x="117" y="761.9888">2.3. showError()</text><rect fill="#EEEEEE" height="3" style="stroke:#EEEEEE;stroke-width:1.0;" width="1128" x="0" y="802.6211"/><line style="stroke:#000000;stroke-width:1.0;" x1="0" x2="1128" y1="802.6211" y2="802.6211"/><line style="stroke:#000000;stroke-width:1.0;" x1="0" x2="1128" y1="805.6211" y2="805.6211"/><rect fill="#EEEEEE" height="23.1328" style="stroke:#000000;stroke-width:2.0;" width="175" x="476.5" y="792.0547"/><text fill="#000000" font-family="sans-serif" font-size="13" font-weight="bold" lengthAdjust="spacing" textLength="156" x="482.5" y="808.1216">3. Play Entire Playlist</text><polygon fill="#181818" points="284,842.3203,294,846.3203,284,850.3203,288,846.3203" style="stroke:#181818;stroke-width:1.0;"/><line style="stroke:#181818;stroke-width:1.0;" x1="39" x2="290" y1="846.3203" y2="846.3203"/><text fill="#000000" font-family="sans-serif" font-size="13" lengthAdjust="spacing" textLength="141" x="97" y="841.2544">3. clickPlayPlaylist(idx)</text><polygon fill="#181818" points="611,871.4531,621,875.4531,611,879.4531,615,875.4531" style="stroke:#181818;stroke-width:1.0;"/><line style="stroke:#181818;stroke-width:1.0;" x1="306" x2="617" y1="875.4531" y2="875.4531"/><text fill="#000000" font-family="sans-serif" font-size="13" lengthAdjust="spacing" textLength="121" x="404" y="870.3872">3.1. getPlaylist(idx)</text><polygon fill="#181818" points="317,900.5859,307,904.5859,317,908.5859,313,904.5859" style="stroke:#181818;stroke-width:1.0;"/><line style="stroke:#181818;stroke-width:1.0;stroke-dasharray:2.0,2.0;" x1="311" x2="627" y1="904.5859" y2="904.5859"/><text fill="#000000" font-family="sans-serif" font-size="13" lengthAdjust="spacing" textLength="158" x="388" y="899.52">3.1.1. return PlaylistData</text><path d="M10,919.5859 L74,919.5859 L74,926.7188 L64,936.7188 L10,936.7188 L10,919.5859 " fill="#EEEEEE" style="stroke:#000000;stroke-width:1.5;"/><rect fill="none" height="198.7344" style="stroke:#000000;stroke-width:1.5;" width="1108" x="10" y="919.5859"/><text fill="#000000" font-family="sans-serif" font-size="13" font-weight="bold" lengthAdjust="spacing" textLength="19" x="25" y="932.6528">alt</text><text fill="#000000" font-family="sans-serif" font-size="11" font-weight="bold" lengthAdjust="spacing" textLength="127" x="89" y="931.7964">[playlist has tracks]</text><polygon fill="#181818" points="935,953.8516,945,957.8516,935,961.8516,939,957.8516" style="stroke:#181818;stroke-width:1.0;"/><line style="stroke:#181818;stroke-width:1.0;" x1="306" x2="941" y1="957.8516" y2="957.8516"/><text fill="#000000" font-family="sans-serif" font-size="13" lengthAdjust="spacing" textLength="176" x="538.5" y="952.7856">3.2. playPlaylist(trackPaths)</text><path d="M962,970.8516 L962,1010.8516 L1108,1010.8516 L1108,980.8516 L1098,970.8516 L962,970.8516 " fill="#FEFFDD" style="stroke:#181818;stroke-width:0.5;"/><path d="M1098,970.8516 L1098,980.8516 L1108,980.8516 L1098,970.8516 " fill="#FEFFDD" style="stroke:#181818;stroke-width:0.5;"/><text fill="#000000" font-family="sans-serif" font-size="13" lengthAdjust="spacing" textLength="101" x="968" y="987.9185">Replaces queue</text><text fill="#000000" font-family="sans-serif" font-size="13" lengthAdjust="spacing" textLength="125" x="968" y="1003.0513">and starts playback</text><polygon fill="#181818" points="317,1033.25,307,1037.25,317,1041.25,313,1037.25" style="stroke:#181818;stroke-width:1.0;"/><line style="stroke:#181818;stroke-width:1.0;stroke-dasharray:2.0,2.0;" x1="311" x2="951" y1="1037.25" y2="1037.25"/><text fill="#000000" font-family="sans-serif" font-size="13" lengthAdjust="spacing" textLength="79" x="589.5" y="1032.1841">3.2.1. return</text><polygon fill="#181818" points="50,1062.3828,40,1066.3828,50,1070.3828,46,1066.3828" style="stroke:#181818;stroke-width:1.0;"/><line style="stroke:#181818;stroke-width:1.0;stroke-dasharray:2.0,2.0;" x1="44" x2="295" y1="1066.3828" y2="1066.3828"/><text fill="#000000" font-family="sans-serif" font-size="13" lengthAdjust="spacing" textLength="155" x="90" y="1061.3169">3.3. updateNowPlaying()</text><line style="stroke:#000000;stroke-width:1.0;stroke-dasharray:2.0,2.0;" x1="10" x2="1118" y1="1075.3828" y2="1075.3828"/><text fill="#000000" font-family="sans-serif" font-size="11" font-weight="bold" lengthAdjust="spacing" textLength="100" x="15" y="1085.5933">[playlist empty]</text><polygon fill="#181818" points="50,1106.3203,40,1110.3203,50,1114.3203,46,1110.3203" style="stroke:#181818;stroke-width:1.0;"/><line style="stroke:#181818;stroke-width:1.0;stroke-dasharray:2.0,2.0;" x1="44" x2="295" y1="1110.3203" y2="1110.3203"/><text fill="#000000" font-family="sans-serif" font-size="13" lengthAdjust="spacing" textLength="168" x="83.5" y="1105.2544">3.3. showEmptyMessage()</text><!--SRC=[XLN1Rfj04Btp5QFaOajnfE9R9LUYs8qiXTIA4bULSjd21A-25xgxnCtVTsR1UA6WsXT0xxsTUMzsrxn9LGajZl1Bf6-vBckLnMLHQZWTfCN0IbiWxBUR7t0V_TmymW9sXVWefB7ml8Nl5MfXPQbCO2QLhhzj-EyX3FwkKQMOe34YnwYGkO8KbKKT12ArH7esz4neArDP2MNXQdkyg-LUukaAX87j7gxlPNwmTnfHzP69a2ekIKrPXqtYQUovcqGegaI_g1alCNUyNRB_Ft4jh6ZGwsbmL5LSa2wB0hL3Ht4Gh5RmwHPYZS8YFE3fOkrg5R01iFZ2nNzcM5h8zAt1dc6pEPibtvcUn04XBtXYc4DvMajHbFbCYIFUG8OcdG-5mrkWM6hNXuUxWPJ3ssP_vgqmkz4Gk9f-8UEyhZYY1andbNKdGZ8YotmV_OPswu2mYy72LAr6MsiLPDY3ihhVr3YGwk1c2EXSOEYoCOhizsprE4aJ5Eb5MGPFceORR3aTLTX6HUYljRMbcbdcz0tffnMUq-g64LKzcmzrITbWWQdj2gtQ1oSUYCA2zmNUHI6p0EZd1nWs0PBphfUdSapj1bpHEs4FSwVGiv0_-766vpYhsXoUpiHPDS9UDsG_s70GB0FwuNRh-Lvq131rcj91yW-nhRGVU7WEdFRZgzH7TtgHrrWOxBadLT-_4OcDrgLchif69eP0R2rib9KQfmTcsGuC0xeivFYuD8ujsUiSxGIwsssN5LmwhLt-XXjkZjuCmO7EAJS7nfkYg54a-ok_u6vUp21oEkZuNPNqhFbuXFAr4Nb4Kg3aW2w36b-KK1aOIyUcST9yZJXg5FkjX9TMXectI_NJMd9QTPKHuA7POLBbmy01ZvNzc6Axh1dGtbUZaVy5]--></g></svg>