<?xml version="1.0" encoding="us-ascii" standalone="no"?><svg xmlns="http://www.w3.org/2000/svg" xmlns:xlink="http://www.w3.org/1999/xlink" contentStyleType="text/css" height="965px" preserveAspectRatio="none" style="width:1365px;height:965px;background:#FFFFFF;" version="1.1" viewBox="0 0 1365 965" width="1365px" zoomAndPan="magnify"><defs/><g><rect fill="#FFFFFF" height="29.1328" style="stroke:#181818;stroke-width:1.0;" width="10" x="137" y="462.0234"/><rect fill="#FFFFFF" height="320.4609" style="stroke:#181818;stroke-width:1.0;" width="10" x="264.5" y="112.4297"/><rect fill="#FFFFFF" height="29.1328" style="stroke:#181818;stroke-width:1.0;" width="10" x="264.5" y="837.6172"/><rect fill="#FFFFFF" height="262.1953" style="stroke:#181818;stroke-width:1.0;" width="10" x="522.5" y="141.5625"/><rect fill="#FFFFFF" height="346.4609" style="stroke:#181818;stroke-width:1.0;" width="10" x="522.5" y="491.1563"/><rect fill="#FFFFFF" height="29.1328" style="stroke:#181818;stroke-width:1.0;" width="10" x="709.5" y="287.2266"/><rect fill="#FFFFFF" height="29.1328" style="stroke:#181818;stroke-width:1.0;" width="10" x="709.5" y="662.8203"/><rect fill="#FFFFFF" height="71.2656" style="stroke:#181818;stroke-width:1.0;" width="10" x="822" y="520.2891"/><rect fill="#FFFFFF" height="29.1328" style="stroke:#181818;stroke-width:1.0;" width="10" x="822" y="779.3516"/><rect fill="#FFFFFF" height="87.3984" style="stroke:#181818;stroke-width:1.0;" width="10" x="1063" y="170.6953"/><rect fill="#FFFFFF" height="29.1328" style="stroke:#181818;stroke-width:1.0;" width="10" x="1157.5" y="345.4922"/><rect fill="#FFFFFF" height="29.1328" style="stroke:#181818;stroke-width:1.0;" width="10" x="1157.5" y="721.0859"/><rect fill="#FFFFFF" height="29.1328" style="stroke:#181818;stroke-width:1.0;" width="10" x="1283.5" y="199.8281"/><line style="stroke:#181818;stroke-width:0.5;stroke-dasharray:5.0,5.0;" x1="24" x2="24" y1="81.2969" y2="884.75"/><line style="stroke:#181818;stroke-width:0.5;stroke-dasharray:5.0,5.0;" x1="142" x2="142" y1="81.2969" y2="884.75"/><line style="stroke:#181818;stroke-width:0.5;stroke-dasharray:5.0,5.0;" x1="269" x2="269" y1="81.2969" y2="884.75"/><line style="stroke:#181818;stroke-width:0.5;stroke-dasharray:5.0,5.0;" x1="527.5" x2="527.5" y1="81.2969" y2="884.75"/><line style="stroke:#181818;stroke-width:0.5;stroke-dasharray:5.0,5.0;" x1="714.5" x2="714.5" y1="81.2969" y2="884.75"/><line style="stroke:#181818;stroke-width:0.5;stroke-dasharray:5.0,5.0;" x1="826.5" x2="826.5" y1="81.2969" y2="884.75"/><line style="stroke:#181818;stroke-width:0.5;stroke-dasharray:5.0,5.0;" x1="1068" x2="1068" y1="81.2969" y2="884.75"/><line style="stroke:#181818;stroke-width:0.5;stroke-dasharray:5.0,5.0;" x1="1162" x2="1162" y1="81.2969" y2="884.75"/><line style="stroke:#181818;stroke-width:0.5;stroke-dasharray:5.0,5.0;" x1="1288" x2="1288" y1="81.2969" y2="884.75"/><text fill="#000000" font-family="sans-serif" font-size="14" lengthAdjust="spacing" textLength="32" x="5" y="77.9951">User</text><ellipse cx="24" cy="13.5" fill="#E2E2F0" rx="8" ry="8" style="stroke:#181818;stroke-width:0.5;"/><path d="M24,21.5 L24,48.5 M11,29.5 L37,29.5 M24,48.5 L11,63.5 M24,48.5 L37,63.5 " fill="none" style="stroke:#181818;stroke-width:0.5;"/><text fill="#000000" font-family="sans-serif" font-size="14" lengthAdjust="spacing" textLength="32" x="5" y="896.7451">User</text><ellipse cx="24" cy="908.5469" fill="#E2E2F0" rx="8" ry="8" style="stroke:#181818;stroke-width:0.5;"/><path d="M24,916.5469 L24,943.5469 M11,924.5469 L37,924.5469 M24,943.5469 L11,958.5469 M24,943.5469 L37,958.5469 " fill="none" style="stroke:#181818;stroke-width:0.5;"/><rect fill="#E2E2F0" height="30.2969" rx="2.5" ry="2.5" style="stroke:#181818;stroke-width:0.5;" width="150" x="67" y="50"/><text fill="#000000" font-family="sans-serif" font-size="14" lengthAdjust="spacing" textLength="136" x="74" y="69.9951">Hardware Controller</text><rect fill="#E2E2F0" height="30.2969" rx="2.5" ry="2.5" style="stroke:#181818;stroke-width:0.5;" width="150" x="67" y="883.75"/><text fill="#000000" font-family="sans-serif" font-size="14" lengthAdjust="spacing" textLength="136" x="74" y="903.7451">Hardware Controller</text><rect fill="#E2E2F0" height="30.2969" rx="2.5" ry="2.5" style="stroke:#181818;stroke-width:0.5;" width="85" x="227" y="50"/><text fill="#000000" font-family="sans-serif" font-size="14" lengthAdjust="spacing" textLength="71" x="234" y="69.9951">ImGuiView</text><rect fill="#E2E2F0" height="30.2969" rx="2.5" ry="2.5" style="stroke:#181818;stroke-width:0.5;" width="85" x="227" y="883.75"/><text fill="#000000" font-family="sans-serif" font-size="14" lengthAdjust="spacing" textLength="71" x="234" y="903.7451">ImGuiView</text><rect fill="#E2E2F0" height="30.2969" rx="2.5" ry="2.5" style="stroke:#181818;stroke-width:0.5;" width="108" x="473.5" y="50"/><text fill="#000000" font-family="sans-serif" font-size="14" lengthAdjust="spacing" textLength="94" x="480.5" y="69.9951">AppController</text><rect fill="#E2E2F0" height="30.2969" rx="2.5" ry="2.5" style="stroke:#181818;stroke-width:0.5;" width="108" x="473.5" y="883.75"/><text fill="#000000" font-family="sans-serif" font-size="14" lengthAdjust="spacing" textLength="94" x="480.5" y="903.7451">AppController</text><rect fill="#E2E2F0" height="30.2969" rx="2.5" ry="2.5" style="stroke:#181818;stroke-width:0.5;" width="94" x="667.5" y="50"/><text fill="#000000" font-family="sans-serif" font-size="14" lengthAdjust="spacing" textLength="80" x="674.5" y="69.9951">AudioPlayer</text><rect fill="#E2E2F0" height="30.2969" rx="2.5" ry="2.5" style="stroke:#181818;stroke-width:0.5;" width="94" x="667.5" y="883.75"/><text fill="#000000" font-family="sans-serif" font-size="14" lengthAdjust="spacing" textLength="80" x="674.5" y="903.7451">AudioPlayer</text><rect fill="#E2E2F0" height="30.2969" rx="2.5" ry="2.5" style="stroke:#181818;stroke-width:0.5;" width="111" x="771.5" y="50"/><text fill="#000000" font-family="sans-serif" font-size="14" lengthAdjust="spacing" textLength="97" x="778.5" y="69.9951">SerialManager</text><rect fill="#E2E2F0" height="30.2969" rx="2.5" ry="2.5" style="stroke:#181818;stroke-width:0.5;" width="111" x="771.5" y="883.75"/><text fill="#000000" font-family="sans-serif" font-size="14" lengthAdjust="spacing" textLength="97" x="778.5" y="903.7451">SerialManager</text><rect fill="#E2E2F0" height="30.2969" rx="2.5" ry="2.5" style="stroke:#181818;stroke-width:0.5;" width="78" x="1029" y="50"/><text fill="#000000" font-family="sans-serif" font-size="14" lengthAdjust="spacing" textLength="64" x="1036" y="69.9951">MediaFile</text><rect fill="#E2E2F0" height="30.2969" rx="2.5" ry="2.5" style="stroke:#181818;stroke-width:0.5;" width="78" x="1029" y="883.75"/><text fill="#000000" font-family="sans-serif" font-size="14" lengthAdjust="spacing" textLength="64" x="1036" y="903.7451">MediaFile</text><rect fill="#E2E2F0" height="30.2969" rx="2.5" ry="2.5" style="stroke:#181818;stroke-width:0.5;" width="91" x="1117" y="50"/><text fill="#000000" font-family="sans-serif" font-size="14" lengthAdjust="spacing" textLength="77" x="1124" y="69.9951">PlayerState</text><rect fill="#E2E2F0" height="30.2969" rx="2.5" ry="2.5" style="stroke:#181818;stroke-width:0.5;" width="91" x="1117" y="883.75"/><text fill="#000000" font-family="sans-serif" font-size="14" lengthAdjust="spacing" textLength="77" x="1124" y="903.7451">PlayerState</text><rect fill="#E2E2F0" height="30.2969" rx="2.5" ry="2.5" style="stroke:#181818;stroke-width:0.5;" width="141" x="1218" y="50"/><text fill="#000000" font-family="sans-serif" font-size="14" lengthAdjust="spacing" textLength="127" x="1225" y="69.9951">Local/USB Storage</text><rect fill="#E2E2F0" height="30.2969" rx="2.5" ry="2.5" style="stroke:#181818;stroke-width:0.5;" width="141" x="1218" y="883.75"/><text fill="#000000" font-family="sans-serif" font-size="14" lengthAdjust="spacing" textLength="127" x="1225" y="903.7451">Local/USB Storage</text><rect fill="#FFFFFF" height="29.1328" style="stroke:#181818;stroke-width:1.0;" width="10" x="137" y="462.0234"/><rect fill="#FFFFFF" height="320.4609" style="stroke:#181818;stroke-width:1.0;" width="10" x="264.5" y="112.4297"/><rect fill="#FFFFFF" height="29.1328" style="stroke:#181818;stroke-width:1.0;" width="10" x="264.5" y="837.6172"/><rect fill="#FFFFFF" height="262.1953" style="stroke:#181818;stroke-width:1.0;" width="10" x="522.5" y="141.5625"/><rect fill="#FFFFFF" height="346.4609" style="stroke:#181818;stroke-width:1.0;" width="10" x="522.5" y="491.1563"/><rect fill="#FFFFFF" height="29.1328" style="stroke:#181818;stroke-width:1.0;" width="10" x="709.5" y="287.2266"/><rect fill="#FFFFFF" height="29.1328" style="stroke:#181818;stroke-width:1.0;" width="10" x="709.5" y="662.8203"/><rect fill="#FFFFFF" height="71.2656" style="stroke:#181818;stroke-width:1.0;" width="10" x="822" y="520.2891"/><rect fill="#FFFFFF" height="29.1328" style="stroke:#181818;stroke-width:1.0;" width="10" x="822" y="779.3516"/><rect fill="#FFFFFF" height="87.3984" style="stroke:#181818;stroke-width:1.0;" width="10" x="1063" y="170.6953"/><rect fill="#FFFFFF" height="29.1328" style="stroke:#181818;stroke-width:1.0;" width="10" x="1157.5" y="345.4922"/><rect fill="#FFFFFF" height="29.1328" style="stroke:#181818;stroke-width:1.0;" width="10" x="1157.5" y="721.0859"/><rect fill="#FFFFFF" height="29.1328" style="stroke:#181818;stroke-width:1.0;" width="10" x="1283.5" y="199.8281"/><polygon fill="#181818" points="252.5,108.4297,262.5,112.4297,252.5,116.4297,256.5,112.4297" style="stroke:#181818;stroke-width:1.0;"/><line style="stroke:#181818;stroke-width:1.0;" x1="24" x2="258.5" y1="112.4297" y2="112.4297"/><text fill="#000000" font-family="sans-serif" font-size="13" lengthAdjust="spacing" textLength="89" x="31" y="107.3638">1.Select Song</text><polygon fill="#181818" points="510.5,137.5625,520.5,141.5625,510.5,145.5625,514.5,141.5625" style="stroke:#181818;stroke-width:1.0;"/><line style="stroke:#181818;stroke-width:1.0;" x1="274.5" x2="516.5" y1="141.5625" y2="141.5625"/><text fill="#000000" font-family="sans-serif" font-size="13" lengthAdjust="spacing" textLength="124" x="281.5" y="136.4966">1.1.loadTrack(path)</text><polygon fill="#181818" points="1051,166.6953,1061,170.6953,1051,174.6953,1055,170.6953" style="stroke:#181818;stroke-width:1.0;"/><line style="stroke:#181818;stroke-width:1.0;" x1="532.5" x2="1057" y1="170.6953" y2="170.6953"/><text fill="#000000" font-family="sans-serif" font-size="13" lengthAdjust="spacing" textLength="116" x="539.5" y="165.6294">1.1.1.create(path)</text><polygon fill="#181818" points="1271.5,195.8281,1281.5,199.8281,1271.5,203.8281,1275.5,199.8281" style="stroke:#181818;stroke-width:1.0;"/><line style="stroke:#181818;stroke-width:1.0;" x1="1073" x2="1277.5" y1="199.8281" y2="199.8281"/><text fill="#000000" font-family="sans-serif" font-size="13" lengthAdjust="spacing" textLength="144" x="1080" y="194.7622">1.1.1.1.read metadata</text><polygon fill="#181818" points="1084,224.9609,1074,228.9609,1084,232.9609,1080,228.9609" style="stroke:#181818;stroke-width:1.0;"/><line style="stroke:#181818;stroke-width:1.0;stroke-dasharray:2.0,2.0;" x1="1078" x2="1287.5" y1="228.9609" y2="228.9609"/><text fill="#000000" font-family="sans-serif" font-size="13" lengthAdjust="spacing" textLength="99" x="1090" y="223.895">1.1.1.2.file data</text><polygon fill="#181818" points="543.5,254.0938,533.5,258.0938,543.5,262.0938,539.5,258.0938" style="stroke:#181818;stroke-width:1.0;"/><line style="stroke:#181818;stroke-width:1.0;stroke-dasharray:2.0,2.0;" x1="537.5" x2="1067" y1="258.0938" y2="258.0938"/><text fill="#000000" font-family="sans-serif" font-size="13" lengthAdjust="spacing" textLength="142" x="549.5" y="253.0278">1.1.2.return metadata</text><polygon fill="#181818" points="697.5,283.2266,707.5,287.2266,697.5,291.2266,701.5,287.2266" style="stroke:#181818;stroke-width:1.0;"/><line style="stroke:#181818;stroke-width:1.0;" x1="532.5" x2="703.5" y1="287.2266" y2="287.2266"/><text fill="#000000" font-family="sans-serif" font-size="13" lengthAdjust="spacing" textLength="102" x="539.5" y="282.1606">1.1.3.load(path)</text><polygon fill="#181818" points="543.5,312.3594,533.5,316.3594,543.5,320.3594,539.5,316.3594" style="stroke:#181818;stroke-width:1.0;"/><line style="stroke:#181818;stroke-width:1.0;stroke-dasharray:2.0,2.0;" x1="537.5" x2="713.5" y1="316.3594" y2="316.3594"/><text fill="#000000" font-family="sans-serif" font-size="13" lengthAdjust="spacing" textLength="119" x="549.5" y="311.2935">1.1.4.ready to play</text><polygon fill="#181818" points="1145.5,341.4922,1155.5,345.4922,1145.5,349.4922,1149.5,345.4922" style="stroke:#181818;stroke-width:1.0;"/><line style="stroke:#181818;stroke-width:1.0;" x1="532.5" x2="1151.5" y1="345.4922" y2="345.4922"/><text fill="#000000" font-family="sans-serif" font-size="13" lengthAdjust="spacing" textLength="138" x="539.5" y="340.4263">1.1.5.setCurrentTrack</text><polygon fill="#181818" points="543.5,370.625,533.5,374.625,543.5,378.625,539.5,374.625" style="stroke:#181818;stroke-width:1.0;"/><line style="stroke:#181818;stroke-width:1.0;stroke-dasharray:2.0,2.0;" x1="537.5" x2="1161.5" y1="374.625" y2="374.625"/><text fill="#000000" font-family="sans-serif" font-size="13" lengthAdjust="spacing" textLength="148" x="549.5" y="369.5591">1.1.6.return state track</text><polygon fill="#181818" points="285.5,399.7578,275.5,403.7578,285.5,407.7578,281.5,403.7578" style="stroke:#181818;stroke-width:1.0;"/><line style="stroke:#181818;stroke-width:1.0;stroke-dasharray:2.0,2.0;" x1="279.5" x2="526.5" y1="403.7578" y2="403.7578"/><text fill="#000000" font-family="sans-serif" font-size="13" lengthAdjust="spacing" textLength="60" x="291.5" y="398.6919">1.2.ready</text><polygon fill="#181818" points="35,428.8906,25,432.8906,35,436.8906,31,432.8906" style="stroke:#181818;stroke-width:1.0;"/><line style="stroke:#181818;stroke-width:1.0;stroke-dasharray:2.0,2.0;" x1="29" x2="268.5" y1="432.8906" y2="432.8906"/><text fill="#000000" font-family="sans-serif" font-size="13" lengthAdjust="spacing" textLength="142" x="41" y="427.8247">2.show song is playing</text><polygon fill="#181818" points="125,458.0234,135,462.0234,125,466.0234,129,462.0234" style="stroke:#181818;stroke-width:1.0;"/><line style="stroke:#181818;stroke-width:1.0;" x1="24" x2="131" y1="462.0234" y2="462.0234"/><text fill="#000000" font-family="sans-serif" font-size="13" lengthAdjust="spacing" textLength="94" x="31" y="456.9575">3.Press Button</text><polygon fill="#181818" points="510.5,487.1563,520.5,491.1563,510.5,495.1563,514.5,491.1563" style="stroke:#181818;stroke-width:1.0;"/><line style="stroke:#181818;stroke-width:1.0;" x1="142" x2="516.5" y1="491.1563" y2="491.1563"/><text fill="#000000" font-family="sans-serif" font-size="13" lengthAdjust="spacing" textLength="143" x="149" y="486.0903">3.1.Data Transmission</text><polygon fill="#181818" points="810,516.2891,820,520.2891,810,524.2891,814,520.2891" style="stroke:#181818;stroke-width:1.0;"/><line style="stroke:#181818;stroke-width:1.0;" x1="532.5" x2="816" y1="520.2891" y2="520.2891"/><text fill="#000000" font-family="sans-serif" font-size="13" lengthAdjust="spacing" textLength="206" x="539.5" y="515.2231">3.1.1.send DataCallback("PLAY")</text><line style="stroke:#181818;stroke-width:1.0;" x1="832" x2="874" y1="549.4219" y2="549.4219"/><line style="stroke:#181818;stroke-width:1.0;" x1="874" x2="874" y1="549.4219" y2="562.4219"/><line style="stroke:#181818;stroke-width:1.0;" x1="833" x2="874" y1="562.4219" y2="562.4219"/><polygon fill="#181818" points="843,558.4219,833,562.4219,843,566.4219,839,562.4219" style="stroke:#181818;stroke-width:1.0;"/><text fill="#000000" font-family="sans-serif" font-size="13" lengthAdjust="spacing" textLength="217" x="839" y="544.356">3.1.1.1.parse complete command</text><polygon fill="#181818" points="543.5,587.5547,533.5,591.5547,543.5,595.5547,539.5,591.5547" style="stroke:#181818;stroke-width:1.0;"/><line style="stroke:#181818;stroke-width:1.0;stroke-dasharray:2.0,2.0;" x1="537.5" x2="826" y1="591.5547" y2="591.5547"/><text fill="#000000" font-family="sans-serif" font-size="13" lengthAdjust="spacing" textLength="217" x="549.5" y="586.4888">3.1.2.trigger DataCallback("PLAY")</text><line style="stroke:#181818;stroke-width:1.0;" x1="532.5" x2="574.5" y1="620.6875" y2="620.6875"/><line style="stroke:#181818;stroke-width:1.0;" x1="574.5" x2="574.5" y1="620.6875" y2="633.6875"/><line style="stroke:#181818;stroke-width:1.0;" x1="533.5" x2="574.5" y1="633.6875" y2="633.6875"/><polygon fill="#181818" points="543.5,629.6875,533.5,633.6875,543.5,637.6875,539.5,633.6875" style="stroke:#181818;stroke-width:1.0;"/><text fill="#000000" font-family="sans-serif" font-size="13" lengthAdjust="spacing" textLength="163" x="539.5" y="615.6216">3.1.3.processCommand()</text><polygon fill="#181818" points="697.5,658.8203,707.5,662.8203,697.5,666.8203,701.5,662.8203" style="stroke:#181818;stroke-width:1.0;"/><line style="stroke:#181818;stroke-width:1.0;" x1="532.5" x2="703.5" y1="662.8203" y2="662.8203"/><text fill="#000000" font-family="sans-serif" font-size="13" lengthAdjust="spacing" textLength="72" x="539.5" y="657.7544">3.1.4.play()</text><polygon fill="#181818" points="543.5,687.9531,533.5,691.9531,543.5,695.9531,539.5,691.9531" style="stroke:#181818;stroke-width:1.0;"/><line style="stroke:#181818;stroke-width:1.0;stroke-dasharray:2.0,2.0;" x1="537.5" x2="713.5" y1="691.9531" y2="691.9531"/><text fill="#000000" font-family="sans-serif" font-size="13" lengthAdjust="spacing" textLength="142" x="549.5" y="686.8872">3.1.5.playback started</text><polygon fill="#181818" points="1145.5,717.0859,1155.5,721.0859,1145.5,725.0859,1149.5,721.0859" style="stroke:#181818;stroke-width:1.0;"/><line style="stroke:#181818;stroke-width:1.0;" x1="532.5" x2="1151.5" y1="721.0859" y2="721.0859"/><text fill="#000000" font-family="sans-serif" font-size="13" lengthAdjust="spacing" textLength="211" x="539.5" y="716.02">3.1.6.setPlaybackState(PLAYING)</text><polygon fill="#181818" points="543.5,746.2188,533.5,750.2188,543.5,754.2188,539.5,750.2188" style="stroke:#181818;stroke-width:1.0;"/><line style="stroke:#181818;stroke-width:1.0;stroke-dasharray:2.0,2.0;" x1="537.5" x2="1161.5" y1="750.2188" y2="750.2188"/><text fill="#000000" font-family="sans-serif" font-size="13" lengthAdjust="spacing" textLength="148" x="549.5" y="745.1528">3.1.7.return state track</text><polygon fill="#181818" points="810,775.3516,820,779.3516,810,783.3516,814,779.3516" style="stroke:#181818;stroke-width:1.0;"/><line style="stroke:#181818;stroke-width:1.0;" x1="532.5" x2="816" y1="779.3516" y2="779.3516"/><text fill="#000000" font-family="sans-serif" font-size="13" lengthAdjust="spacing" textLength="196" x="539.5" y="774.2856">3.1.8.send("STATUS:PLAYING")</text><polygon fill="#181818" points="543.5,804.4844,533.5,808.4844,543.5,812.4844,539.5,808.4844" style="stroke:#181818;stroke-width:1.0;"/><line style="stroke:#181818;stroke-width:1.0;stroke-dasharray:2.0,2.0;" x1="537.5" x2="826" y1="808.4844" y2="808.4844"/><text fill="#000000" font-family="sans-serif" font-size="13" lengthAdjust="spacing" textLength="119" x="549.5" y="803.4185">3.1.9.return status</text><polygon fill="#181818" points="285.5,833.6172,275.5,837.6172,285.5,841.6172,281.5,837.6172" style="stroke:#181818;stroke-width:1.0;"/><line style="stroke:#181818;stroke-width:1.0;stroke-dasharray:2.0,2.0;" x1="279.5" x2="526.5" y1="837.6172" y2="837.6172"/><text fill="#000000" font-family="sans-serif" font-size="13" lengthAdjust="spacing" textLength="229" x="291.5" y="832.5513">3.2.trigger StateCallback(RUNNING)</text><polygon fill="#181818" points="35,862.75,25,866.75,35,870.75,31,866.75" style="stroke:#181818;stroke-width:1.0;"/><line style="stroke:#181818;stroke-width:1.0;stroke-dasharray:2.0,2.0;" x1="29" x2="268.5" y1="866.75" y2="866.75"/><text fill="#000000" font-family="sans-serif" font-size="13" lengthAdjust="spacing" textLength="142" x="41" y="861.6841">4.show song is playing</text><!--SRC=[bLHDJoCn3BttLrYzK0wTLJliLmyhGLTyI80gXYxQOtOIIaIQZ98C5Vz-7ITC9wLek-qbu_ZPVlPptBFK3RDi3NzO_RoofjLyRfIni7cINWnOxV6yTC8EqCtBMZPCUnXUCiitp0gO6-sjKKhO8J07bm-vtzNwefM_fDZGRJZazwTDinDXxgtQyMcvD0l5NfC7VUSkbR2IgHkcsIevHKlkTIEuPETI2VAWhzmX9gayyz65JhdBjQcP-hIipl3IM4n7ZlWz60m0Vw5LCFv1L646aw8IIjGUAgDNv80TbIyODZQ3JEIBc42TC9D26SRlBOvar33_T9mZgKLa8WGYYKk2JehQ2dJRXuoSWoaY41gel04d1I8vh8Ldd7cMOmD7OeY0yRkSq-8H6miTZ8jtm9Go9ph5bBwrEa_QGszBpXYJ25ACajgrZs-KIZ15_vta9yJt5Ro11aU_ctgBpbAJAbA4puKJVjvQAxIdUUNveu22AOBUyaVmbpVkZYvzX-_L42FqylUrDOtrxs987rjXXI47LSvWMhWdim67MWJfYBDCikp1ep39UeJeCNJBVguGNTL2CqlD76UIltp056MniC8vE6kzDphl1ZuEuHlzjcCeiGy_SUo0tTDkBPsJ2TQhA07V4-n6Gji-AqcAJcWE8UQSAHMUjT5mSNtwUxYZZVH2q73ek0sKwWf_N7ude3RhHWbFXpNJF4FbPAQ5jtA5pz379VJ7koqY8zGBM1QDDJNsT1vpZuu_teQIH1tcEZfy4qhISG25IeCOhHVyFvUX93tZCYnI7BeO1TPNjnV7Xwv52FFruBNegZc2CtH2ZN87sdZvA6lcKKXXivDuSgcaYh-HM4R3wlxqVbdDKhK7A2NltlT-nQtxrv2FO7a5RSF3tGi-YNKIoTujBtkA8jQTfEwMjxTTR_UjVxxH-nw4ayCVX63x2m00]--></g></svg>